<svg xmlns="http://www.w3.org/2000/svg" viewBox="0 0 562 67">
  <path
    d="m464 40-1 2 3-2 3-3 3-2 2-1 3-1 1-1h2l3-1 4 2 3 3a8 8 0 0 1 1 4 12 12 0 0 1 0 1l-2 5-1 1-1 1-1 3-4 4-4 4-5 3-5 2-2 1h-2l-3-1-1-2-1-1v-1h1q0 0 0 0v-1h1l5-1 6-4 7-5 4-5 1-3a4 4 0 0 0 0-1 3 3 0 0 0 0-1 2 2 0 0 0-2-1 10 10 0 0 0-1 0l-5 2-7 5-5 5-1 2-2 3v1l-2 1h-3v-2l-2-1v-3l1-4 2-5 1-5 1-2v-1l1-2v-2l1-2 1-2 2-5 1-2 1-4 3-5 1-4 2-4 2-1a2 2 0 0 1 0 0 5 5 0 0 1 1 0l2 1 1 1 1 1-1 1-1 4-4 7-4 10-3 8-2 6ZM179 51v3h1a5 5 0 0 1 1 0 4 4 0 0 1 1 0l1 1q0 0 0 0l1 1a1 1 0 0 1 1 0 2 2 0 0 1 0 1l-2 2-4 2a5 5 0 0 1 0 0 5 5 0 0 1-4-2q-2-1-2-3a10 10 0 0 1 0-2 20 20 0 0 1 0-3l1-7-1-2-4 2-5 3-6 5-5 5-2 3-3 1h-1l-2-1-1-1a2 2 0 0 1 0-1 5 5 0 0 1 0-1v-3l2-4 1-6 1-3 1-3 1-2 2-5 1-5 3-8a3146 3146 0 0 1 3-8 1070 1070 0 0 1 1-1l1-4 1-3 1-1h1l2 1 2 3a6 6 0 0 1 0 1 6 6 0 0 1-1 3l-3 9-4 9-3 8v2l-1 1-1 2v2l-1 3-1 2v3l1-3 3-2 4-3 2-2 3-2 1-1q0 0 0 0h1v-1h1l1-1 2-1h3l2 1 2 2 1 4a10 10 0 0 1 0 1 14 14 0 0 1 0 3v3l-1 3Zm157-14 2-5-4-2h-1v-1l1-2 1-2h7v-1l1-2 1-2 2-3 1-2 1-2 2-2h2a2 2 0 0 1 0 0 4 4 0 0 1 3 1l1 1-1 2-2 4-2 3a4 4 0 0 0-1 2v1l6-1a11 11 0 0 1 2 0 4 4 0 0 1 2 1l2 2-1 3a11 11 0 0 1-4 0 54 54 0 0 1 0 0l-5 1h-5l-1 1-1 1-1 2-2 4-2 8-2 8v3l3 1h7l2-1 2-1 2-1 1-1a1 1 0 0 1 1 0 1 1 0 0 1 0 0l1 2v2l-4 3-8 4a27 27 0 0 1-4 0 14 14 0 0 1-3 0l-2-1-2-3-2-2v-1h0v-2a32 32 0 0 1 0-1 45 45 0 0 1 0-5v-4l2-5 2-5ZM4 37l3-5-4-2H2l-1-1 1-2 1-2h7q0 0 0 0l1-1 1-2 1-2 1-3 2-2 1-2 1-2h2a2 2 0 0 1 1 0 4 4 0 0 1 2 1l1 1-1 2-2 4-2 3a4 4 0 0 0 0 2v1l5-1a11 11 0 0 1 2 0 4 4 0 0 1 3 1l1 2v3a11 11 0 0 1-4 0 54 54 0 0 1-1 0l-4 1h-5l-2 1v1l-2 2-2 4-2 8-2 8 1 3 2 1h7l3-1 2-1 2-1 1-1a1 1 0 0 1 0 0 1 1 0 0 1 1 0l1 2-1 2q0 2-3 3l-9 4a27 27 0 0 1-4 0 14 14 0 0 1-2 0l-3-1-2-3-1-2v-1H0v-2a32 32 0 0 1 0-1 45 45 0 0 1 0-5l1-4 1-5 2-5Zm274 30-4-3-2-2v-1a2 2 0 0 1 2-1 10 10 0 0 1 0 0l5 1h3l3-1 1-1h1l-1-1h-2l-1-2-2-1-3-3a3 3 0 0 1-2-2h0l-1-2-1-4 1-3 2-4 2-3 5-4 5-3q2-2 5-2l3-1 3 1 2 1 1 2 2 2-1 2v3l-1 1h0l-1 1-1 2-3 2a3 3 0 0 1-1 0 1 1 0 0 1-1-1l-1-1h-1 0v-3l2-1 1-2 1-2v-1h-1l-3 1-4 2-3 2v1h-1 0a1 1 0 0 0 0 1l-2 1-1 3-2 1v3a3 3 0 0 0 0 1 2 2 0 0 0 0 1l2 2 6 4 3 3 1 2q2 3 1 5l-4 3-3 1h-5a27 27 0 0 1-1 0 15 15 0 0 1-3 0Zm-160-1a12 12 0 0 0 2 0l3-1 4-2 1-1 1-1 2-1 3-2 3-3 1-2h0l1-1-2-1-1-1h-2l-2 2-1 1-1 1-3 2-4 2-3 1a13 13 0 0 1-2 0 7 7 0 0 1-2 0v-2a6 6 0 0 1 0-1 12 12 0 0 1 0-3l3-9 4-6q2-3 5-4a4 4 0 0 1 1 0 1 1 0 0 1 1 0v7l-1 1 1 1 2 1a2 2 0 0 0 0 0h0l1-1h1l1-1 2-4v-6l-2-1h0v-1l-2-2-4-1h-2l-3 1-3 2-4 5-5 7-2 8-1 7q0 3 2 5l4 3a10 10 0 0 0 3 1Zm416-14 6-6-1-4-2-3-1-3-1-2a1 1 0 0 1 0 0 4 4 0 0 1 1-2l1-1h3l1 2 2 3 1 3a1 1 0 0 0 1 2 1 1 0 0 0 0 0l3-2 2-2 1-1 2-1 3-2 2-2a1 1 0 0 1 1 0 2 2 0 0 1 1 0l2 2v4l-3 2-3 2-2 2-4 3-3 2 2 3 1 2 2 1 2 3 3 2 2 1h1l1 1 1 2a6 6 0 0 1 0 1 4 4 0 0 1 0 1l-2 1h-3l-2-1-3-2-3-3-3-2-1-2v-1h-1v-1l-1-1-2 2-3 3-4 4-3 1h-1l-2-2-1-2 2-2 5-5Zm-97 15a4 4 0 0 0 1 0l1-2 1-3 1-7 3-11a88 88 0 0 0 1-1 14 14 0 0 0 0-4h1v-3l1-1 1-3 2-3 1-3 1-2v-1l1-2 1-4 3-6 2-3V4l-2-2-1-1h0-2l-2 1v1l-1 3-2 6-2 6-3 7-2 4v3l-1 1v1l-1 2v1l-1 1-1 2-1 4-1 4-1 3v2l-1 2a22 22 0 0 0-1 5 14 14 0 0 0 0 2l2 4a3 3 0 0 0 2 1ZM50 63q-2 2-5 2a12 12 0 0 1-1 0 12 12 0 0 1-5-1l-4-3q-2-2-2-5a17 17 0 0 1-1-4 36 36 0 0 1 1-3q0-5 2-9t6-7l6-5 3-1 3 1 4 1 2 1 2 3a8 8 0 0 1 1 3 7 7 0 0 1-1 0l-2 6-7 5-5 1-5-1h-2l-1 5a18 18 0 0 0 0 1 8 8 0 0 0 0 4l3 2a17 17 0 0 0 3 0 6 6 0 0 0 0 0l3-1 2-1 1-1 1-1 1-1h1l1 1 1 1h1a2 2 0 0 1-1 1q0 2-2 3l-4 3Zm160 0-6 2a12 12 0 0 1-1 0 12 12 0 0 1-4-1l-5-3-2-5a17 17 0 0 1 0-4 36 36 0 0 1 0-3q0-5 2-9l6-7 6-5 3-1 4 1 3 1 2 1 2 3a8 8 0 0 1 1 3 7 7 0 0 1 0 0l-3 6-7 5-4 1-5-1h-3l-1 5a18 18 0 0 0 0 1 8 8 0 0 0 1 4l2 2a17 17 0 0 0 3 0 6 6 0 0 0 1 0l2-1 2-1 1-1 1-1 1-1h1l2 1 1 1h0a2 2 0 0 1 0 1l-3 3-3 3ZM73 39v-1l1-2 2-2 3-3 3-2 4-2a7 7 0 0 1 1 0 5 5 0 0 1 3 2l1 1 2 1 2 2 4 3-2 5v7l1 6 2 2 3 1h1l1 2v2l-2 1-6-1q-3-2-5-7l-1-2-1-2-2 2-1 1q-7 8-12 10a12 12 0 0 1-5 1 7 7 0 0 1-4-1l-1-1a1 1 0 0 1-1-1v-1l-1-1a1 1 0 0 1 0-1 7 7 0 0 1 0-2l3-5 3-7 2-2 1-2v-1h1Zm153 24-1-1a3 3 0 0 1-1-2 8 8 0 0 1 0-1l1-5 1-5 1-4 3-7 2-6 3-5a3 3 0 0 1 2 0 6 6 0 0 1 0 0l2 1a2 2 0 0 1 1 1 6 6 0 0 1 0 2l-3 7-2 3v2q0 1 0 0l2-2 4-3 3-3 2-1 2-1 2-1a9 9 0 0 1 4 0 9 9 0 0 1 1 0l3 1v2h1q0 0 0 0v1l-1 1h-3l-2 1-2 1-7 4q-4 2-7 6l-1 1-2 3-1 2-1 3v3l-1 2a10 10 0 0 1-1 1 3 3 0 0 1-1 1 1 1 0 0 1-1 0 4 4 0 0 1-2-2Zm144 2h-2l-1-2-3-4-1-4a4 4 0 0 0 0-1 3 3 0 0 0 0 0v-1a1 1 0 0 1 0 0h0a2 2 0 0 0 0-1l1-1a3 3 0 0 0 0 0l1-4 2-5 2-2 2-4 3-2 5-4 4-1 3-1q2 0 3 2l3 2 2 5-1 7q-1 4-5 9l-4 6-5 3-4 2-5 1Zm36 0h-2l-2-2-3-4v-4a4 4 0 0 0 0-1 3 3 0 0 0 0 0v-1a1 1 0 0 1 0 0h0a2 2 0 0 0 0-1v-1a3 3 0 0 0 0 0l1-4 3-5 1-2 3-4 3-2 4-4 4-1 4-1 3 2 3 2 1 5v7q-1 4-5 9-2 4-5 6l-5 3-4 2-4 1Zm97 0h-2l-2-2-3-4-1-4a4 4 0 0 0 1-1 3 3 0 0 0 0 0l-1-1a1 1 0 0 1 0 0h0a2 2 0 0 0 1-1v-1a3 3 0 0 0 0 0l1-4 2-5 2-2 3-4 2-2 5-4 4-1 4-1 2 2 4 2 1 5-1 7q0 4-4 9l-5 6-5 3-4 2-4 1ZM89 42l2-4-2-3-2-1-4 2-5 6-5 9-2 4-1 2h1a5 5 0 0 0 2-1l4-2 6-6 6-6Zm291 12 4-5 2-6 1-2v-3l-1-2a3 3 0 0 0-2 0 4 4 0 0 0 0 0l-4 1-5 7-4 8a10 10 0 0 0-1 3 4 4 0 0 0 1 2 2 2 0 0 0 2 2 5 5 0 0 0 1-1 14 14 0 0 0 6-4 40 40 0 0 0 0 0Zm36 0 3-5 3-6v-7a3 3 0 0 0-2 0 4 4 0 0 0-1 0l-3 1-5 7-5 8a10 10 0 0 0 0 3 4 4 0 0 0 0 2 2 2 0 0 0 2 2 5 5 0 0 0 2-1 14 14 0 0 0 5-4 40 40 0 0 0 1 0Zm96 0 4-5 3-6v-5l-1-2a3 3 0 0 0-1 0 4 4 0 0 0-1 0l-3 1q-4 3-6 7l-4 8a10 10 0 0 0-1 3 4 4 0 0 0 1 2 2 2 0 0 0 2 2 5 5 0 0 0 1-1 14 14 0 0 0 6-4 40 40 0 0 0 0 0ZM268 23a7 7 0 0 0 1 0l2-1a1 1 0 0 0 1 0h0l3-4 2-5 1-4 1-5V2l-2-1-2-1a1 1 0 0 0 0 0 1 1 0 0 0-1 0v2l-1 1v4l-1 3-2 4-3 5v1a2 2 0 0 0-1 1 3 3 0 0 0 0 1l2 1a2 2 0 0 0 0 0ZM50 42l2-2 2-2 1-2-1-2h-4l-2 1-3 2-2 3-1 1 2 1h6Zm159 0 2-2 2-2 1-2-1-2h-4l-2 1-3 2-2 3v1l1 1h6Z"
    vector-effect="non-scaling-stroke" stroke-linecap="round" fill-rule="evenodd" font-size="12"
    stroke="#000" />
</svg>